<?xml version="1.0" encoding="utf-8"?>
<!-- Generator: Adobe Illustrator 17.0.1, SVG Export Plug-In . SVG Version: 6.00 Build 0)  -->
<!DOCTYPE svg PUBLIC "-//W3C//DTD SVG 1.1//EN" "http://www.w3.org/Graphics/SVG/1.1/DTD/svg11.dtd">
<svg version="1.1" id="Слой_1" xmlns="http://www.w3.org/2000/svg" xmlns:xlink="http://www.w3.org/1999/xlink" x="0px" y="0px"
	 width="401px" height="163.6px" viewBox="0 0 401 163.6" style="enable-background:new 0 0 401 163.6;" xml:space="preserve">
<path d="M143.4,38.4c-1.8-2.4-3.9-4.5-6.5-6L85.7,2.8c-1.7-1-3.6-1.7-5.5-2.1c-1.9-0.5-3.9-0.7-6-0.7c-2,0-4,0.2-6,0.7
	c-1.9,0.5-3.8,1.1-5.5,2.1L11.5,32.3c-1.7,1-3.2,2.3-4.6,3.7c-2,2.2-3.7,4.8-4.9,7.5c-1.2,2.8-2,5.7-2,8.7h4.1H0v59.1
	c0,2,0.3,3.9,0.9,5.9c0.9,2.9,2.3,5.6,4,8c1.8,2.4,3.9,4.5,6.5,6l51.2,29.6c1.7,1,3.6,1.7,5.5,2.1c1.9,0.5,3.9,0.7,6,0.7
	c2,0,4-0.2,6-0.7c1.9-0.5,3.8-1.1,5.5-2.1l51.2-29.6c1.7-1,3.2-2.3,4.6-3.7c2-2.2,3.7-4.8,4.9-7.5c1.2-2.8,2-5.7,2-8.7V52.2
	c0-2-0.3-3.9-0.9-5.9C146.6,43.5,145.2,40.8,143.4,38.4z M140.2,111.3c0,1-0.2,2.2-0.6,3.5c-0.6,1.9-1.6,3.9-2.8,5.5
	c-1.2,1.7-2.7,3-4,3.8l-51.2,29.6c-0.9,0.5-2,0.9-3.3,1.2c-1.3,0.3-2.7,0.5-4.1,0.5c-1.4,0-2.8-0.2-4.1-0.5
	c-1.3-0.3-2.4-0.7-3.3-1.2l-51.2-29.6c-0.9-0.5-1.8-1.3-2.7-2.2c-1.3-1.4-2.6-3.3-3.4-5.2c-0.8-1.9-1.3-3.9-1.3-5.4V52.2
	c0-1,0.2-2.2,0.6-3.5c0.6-1.9,1.6-3.9,2.8-5.5c1.2-1.7,2.7-3,4-3.8L66.8,9.9c0.9-0.5,2-0.9,3.3-1.2c1.3-0.3,2.7-0.5,4.1-0.5
	c1.4,0,2.8,0.2,4.1,0.5c1.3,0.3,2.4,0.7,3.3,1.2l51.2,29.6c0.9,0.5,1.8,1.3,2.7,2.2c1.3,1.4,2.6,3.3,3.4,5.2
	c0.8,1.9,1.3,3.9,1.3,5.4V111.3z"/>
<path d="M113.6,85.3h-12.8c-2.3,0-4.1,1.8-4.1,4.1c0,2.3,1.8,4.1,4.1,4.1h3.7l-12.1,13.7L79.6,92.4l0.7-0.8c0.4-0.4,1.2-1.2,1.9-2.3
	c0.5-0.8,1.1-1.7,1.5-2.9c0.4-1.1,0.7-2.5,0.7-3.9c0-1.5-0.3-2.8-0.7-4c-0.7-1.7-1.5-3-2.3-3.9c-0.5-0.6-0.9-1-1.2-1.3l-0.8-1
	l12.9-15.6l12.2,14.5h-3.8c-2.3,0-4.1,1.8-4.1,4.1c0,2.3,1.8,4.1,4.1,4.1h12.5c1.6,0,3-0.9,3.7-2.4c0.7-1.4,0.4-3.1-0.6-4.4
	L97.8,50.2c0.4-0.5,0.8-1,1.2-1.6c0.9-1.2,1.8-2.6,2.6-4c0.4-0.7,0.7-1.5,1-2.3c0.3-0.8,0.5-1.7,0.5-2.8c0-2.8-1.1-5.4-2.9-7.5
	c-0.9-1-2-1.9-3.4-2.5c-1.3-0.6-2.8-1-4.3-1c-1.5,0-3,0.4-4.3,1c-2,0.9-3.5,2.4-4.6,4.1c-1.1,1.7-1.7,3.7-1.7,5.8
	c0,1.1,0.2,2,0.5,2.8c0.5,1.4,1.2,2.7,1.9,3.9c0.9,1.5,2,2.9,2.9,4.1L74.2,65.8L61.3,50.3c0.4-0.5,0.8-1,1.2-1.6
	c0.9-1.2,1.8-2.6,2.6-4c0.4-0.7,0.7-1.5,1-2.3c0.3-0.8,0.5-1.7,0.5-2.8c0-2.8-1.1-5.4-2.9-7.5c-0.9-1-2-1.9-3.4-2.5
	c-1.3-0.6-2.8-1-4.3-1c-1.5,0-3,0.4-4.3,1c-2,0.9-3.5,2.4-4.6,4.1c-1.1,1.7-1.7,3.7-1.7,5.8c0,1.1,0.2,2,0.5,2.8
	c0.5,1.4,1.2,2.7,1.9,3.9c0.9,1.5,2,2.9,2.9,4L31.9,72.6c-1,1.2-1.2,2.9-0.6,4.4c0.7,1.4,2.1,2.4,3.7,2.4h12.5
	c2.3,0,4.1-1.8,4.1-4.1c0-2.3-1.8-4.1-4.1-4.1h-3.8L56,56.6l12.9,15.6l-0.8,1c-0.4,0.4-1.2,1.2-1.9,2.3c-0.5,0.8-1.1,1.7-1.5,2.9
	c-0.4,1.1-0.7,2.5-0.7,4c0,1.5,0.3,2.8,0.7,3.9c0.6,1.7,1.5,3,2.2,3.9c0.5,0.6,0.9,1,1.2,1.3l0.7,0.9L56,107.1L43.9,93.5h3.7
	c2.3,0,4.1-1.8,4.1-4.1c0-2.3-1.8-4.1-4.1-4.1H34.8c-1.6,0-3.1,0.9-3.7,2.4c-0.7,1.5-0.4,3.2,0.7,4.4l18.8,21.3
	c-0.4,0.5-0.8,1-1.2,1.5c-0.9,1.2-1.8,2.6-2.6,4c-0.4,0.7-0.7,1.5-1,2.3c-0.3,0.8-0.5,1.7-0.5,2.8c0,2.8,1.1,5.4,2.9,7.5
	c0.9,1,2,1.9,3.4,2.5c1.3,0.6,2.8,1,4.3,1c1.5,0,3-0.4,4.3-1c2-0.9,3.5-2.4,4.6-4.1c1.1-1.7,1.7-3.7,1.7-5.8c0-1.1-0.2-2-0.5-2.8
	c-0.5-1.4-1.2-2.7-1.9-3.9c-0.9-1.5-1.9-2.9-2.8-4l12.8-14.8L87,113.4c-0.4,0.5-0.8,1-1.2,1.5c-0.9,1.2-1.8,2.6-2.6,4
	c-0.4,0.7-0.7,1.5-1,2.3c-0.3,0.8-0.5,1.7-0.5,2.8c0,2.8,1.1,5.4,2.9,7.5c0.9,1,2,1.9,3.4,2.5c1.3,0.6,2.8,1,4.3,1
	c1.5,0,3-0.4,4.3-1c2-0.9,3.5-2.4,4.6-4.1c1.1-1.7,1.7-3.7,1.7-5.8c0-1.1-0.2-2-0.5-2.8c-0.5-1.4-1.2-2.7-1.9-3.9
	c-0.9-1.5-1.9-2.8-2.8-4l18.8-21.3c1.1-1.2,1.3-2.9,0.7-4.4C116.7,86.2,115.2,85.3,113.6,85.3z M91.5,37c0.3-0.1,0.5-0.2,0.9-0.2
	c0.3,0,0.6,0.1,0.9,0.2c0.4,0.2,0.8,0.5,1.1,1c0.3,0.5,0.4,1,0.4,1.5c0,0.1-0.1,0.3-0.2,0.5c-0.2,0.6-0.7,1.4-1.2,2.2
	c-0.3,0.5-0.7,1-1,1.5c0,0,0,0,0,0c-0.7-1-1.4-2.1-1.9-2.9c-0.2-0.4-0.4-0.8-0.5-1.1c0-0.1-0.1-0.2-0.1-0.2c0-0.6,0.3-1.4,0.8-1.9
	C91,37.3,91.3,37.1,91.5,37z M55.1,37c0.3-0.1,0.5-0.2,0.9-0.2c0.3,0,0.6,0.1,0.9,0.2c0.4,0.2,0.8,0.5,1.1,1c0.3,0.5,0.4,1,0.4,1.5
	c0,0.1-0.1,0.3-0.2,0.5c-0.2,0.6-0.7,1.4-1.2,2.2c-0.3,0.5-0.7,1-1,1.5c0,0,0,0,0,0c-0.7-1-1.4-2.1-1.9-2.9
	c-0.2-0.4-0.4-0.8-0.5-1.1c0-0.1-0.1-0.2-0.1-0.2c0-0.6,0.3-1.4,0.8-1.9C54.6,37.3,54.8,37.1,55.1,37z M56.9,126.6
	c-0.3,0.1-0.5,0.2-0.9,0.2c-0.3,0-0.6-0.1-0.9-0.2c-0.4-0.2-0.8-0.5-1.1-1c-0.3-0.5-0.4-1-0.4-1.5c0-0.1,0.1-0.3,0.2-0.5
	c0.2-0.6,0.7-1.4,1.2-2.2c0.3-0.5,0.7-1,1-1.5c0,0,0,0,0,0c0.7,1,1.4,2.1,1.9,2.9c0.2,0.4,0.4,0.8,0.5,1.1c0,0.1,0.1,0.2,0.1,0.2
	c0,0.6-0.3,1.4-0.8,1.9C57.4,126.2,57.1,126.4,56.9,126.6z M74.1,86c-0.1-0.1-0.2-0.3-0.4-0.4l0,0l0,0c-0.1-0.1-0.6-0.6-1-1.2
	c-0.2-0.3-0.4-0.7-0.5-1c-0.1-0.3-0.2-0.7-0.2-1c0-0.3,0.1-0.7,0.2-1.1c0.2-0.6,0.6-1.2,1-1.7c0.2-0.2,0.3-0.4,0.4-0.5l0.1-0.1l0,0
	l0,0c0.2-0.1,0.3-0.2,0.4-0.4c0.1,0.2,0.2,0.3,0.4,0.4l0,0c0,0,0.1,0.1,0.3,0.3c0.3,0.3,0.7,0.9,1,1.4c0.3,0.6,0.4,1.1,0.4,1.6
	c0,0.4-0.1,0.7-0.2,1.1c-0.2,0.6-0.6,1.2-0.9,1.6c-0.2,0.2-0.3,0.4-0.4,0.5l-0.1,0.1l0,0l0,0c-0.1,0.1-0.3,0.2-0.4,0.4l-0.1,0.1
	L74.1,86z M89.4,116.1L89.4,116.1L89.4,116.1L89.4,116.1z M93.3,126.6c-0.3,0.1-0.5,0.2-0.9,0.2c-0.3,0-0.6-0.1-0.9-0.2
	c-0.4-0.2-0.8-0.5-1.1-1c-0.3-0.5-0.4-1-0.4-1.5c0-0.1,0.1-0.3,0.2-0.5c0.2-0.6,0.7-1.4,1.2-2.2c0.3-0.5,0.7-1,1-1.5c0,0,0,0,0,0
	c0.7,1,1.4,2.1,1.9,2.9c0.2,0.4,0.4,0.8,0.5,1.1c0,0.1,0.1,0.2,0.1,0.2c0,0.6-0.3,1.4-0.8,1.9C93.8,126.2,93.6,126.4,93.3,126.6z"/>
<path d="M222.1,94.9l-5.9-25.9h0c-0.1-0.5-0.2-1-0.4-1.4c-0.2-0.5-0.5-0.9-1-1.3c-0.3-0.3-0.7-0.4-1.1-0.6c-0.4-0.1-0.8-0.2-1.2-0.2
	h-1.7c-0.5,0-1,0.1-1.5,0.2c-0.5,0.2-1,0.5-1.3,0.9l0,0l0,0c-0.5,0.6-0.8,1.3-1,2l0,0l-4,12.6l-0.8,2.8l-0.8-2.7l-3.9-12.7h0
	c-0.1-0.4-0.3-0.8-0.5-1.2c-0.2-0.4-0.4-0.8-0.8-1.1c-0.4-0.3-0.8-0.5-1.3-0.7c-0.4-0.1-0.9-0.2-1.3-0.2H192c-0.8,0-1.6,0.2-2.3,0.7
	c-0.5,0.3-0.9,0.8-1.1,1.3c-0.2,0.5-0.4,1-0.5,1.5l0,0l-5.9,25.9l0,0c0,0.2-0.1,0.4-0.1,0.6c0,0.2,0,0.5,0.2,0.8
	c0.1,0.2,0.2,0.4,0.4,0.6c0.3,0.3,0.6,0.4,0.8,0.5c0.3,0.1,0.5,0.1,0.7,0.1h3c0.2,0,0.4,0,0.7-0.1c0.3-0.1,0.6-0.2,0.9-0.5l0,0l0,0
	c0.3-0.4,0.5-0.6,0.6-0.9l0.1-0.1l3.5-16.8l0.3-1.5l0.5,1.6l4.3,13.9l0,0c0.2,0.7,0.5,1.3,0.8,1.8l0,0c0.3,0.5,0.8,0.8,1.3,1
	c0.5,0.2,1,0.2,1.5,0.2h1.4c0.5,0,1-0.1,1.5-0.2c0.5-0.2,1-0.5,1.3-0.9c0.4-0.5,0.8-1.2,1-1.8l0,0l4.4-14.7l0,0l0.2-0.7l0.2,1v0
	l3.5,17l0.1,0.1c0.1,0.3,0.2,0.6,0.6,0.9l0,0l0,0c0.3,0.3,0.7,0.4,0.9,0.5c0.3,0.1,0.5,0.1,0.7,0.1h3c0.2,0,0.4,0,0.6-0.1
	c0.2,0,0.3-0.1,0.5-0.2c0.3-0.2,0.6-0.4,0.7-0.8c0.2-0.3,0.2-0.6,0.2-0.9C222.2,95.3,222.1,95.1,222.1,94.9L222.1,94.9z"/>
<path d="M214.8,66.4L214.8,66.4L214.8,66.4L214.8,66.4z"/>
<path d="M205.6,95L205.6,95L205.6,95C205.6,95,205.6,95,205.6,95L205.6,95z"/>
<path d="M196.2,66.5L196.2,66.5L196.2,66.5L196.2,66.5z"/>
<path d="M254.3,77.4L254.3,77.4C254.4,77.3,254.4,77.3,254.3,77.4L254.3,77.4z"/>
<path d="M247.6,96.7L247.6,96.7C247.6,96.7,247.6,96.7,247.6,96.7L247.6,96.7z"/>
<path d="M240.1,101.5C240.1,101.5,240.1,101.5,240.1,101.5C240.1,101.5,240.1,101.5,240.1,101.5L240.1,101.5z"/>
<path d="M253.8,100.9L253.8,100.9L253.8,100.9L253.8,100.9z"/>
<path d="M264.4,66.3c-0.3-0.2-0.6-0.4-0.8-0.5c-0.3-0.1-0.5-0.1-0.7-0.1h-2.8c-0.2,0-0.5,0-0.8,0.1c-0.1,0-0.3,0.1-0.5,0.2
	c-0.2,0.1-0.4,0.2-0.5,0.4l0,0c-0.2,0.3-0.3,0.6-0.5,0.8l0,0l0,0c-0.6,1.7-1.2,3.4-1.8,5.1v0c-0.6,1.7-1.2,3.3-1.7,4.8l0,0
	c-0.5,1.5-0.9,2.7-1.3,3.7v0c-0.2,0.5-0.3,0.9-0.4,1.2c-0.1,0.3-0.2,0.5-0.2,0.6l0,0l0,0c-0.1,0.2-0.1,0.3-0.2,0.6
	c-0.1,0.2-0.2,0.6-0.3,0.9c-0.2,0.7-0.5,1.6-0.8,2.5l0,0c-0.1,0.2-0.2,0.5-0.2,0.7c-0.3-0.9-0.5-1.7-0.7-2.5v0
	c-0.1-0.4-0.2-0.8-0.3-1.1c-0.1-0.3-0.2-0.5-0.2-0.7l0,0c-0.3-0.7-0.6-1.9-1.1-3.3h0c-0.5-1.5-1-3-1.5-4.6h0c-0.5-1.6-1-3.1-1.5-4.6
	l-0.1-0.3l0.1,0.3c-0.5-1.5-0.9-2.6-1.1-3.4l0-0.1l0-0.1c-0.1-0.3-0.2-0.6-0.6-0.9l0,0l0,0c-0.2-0.2-0.4-0.3-0.5-0.4
	c-0.2-0.1-0.4-0.2-0.6-0.2c-0.2,0-0.3,0-0.5,0h-3c-0.2,0-0.4,0-0.6,0.1c-0.2,0-0.3,0.1-0.5,0.2c-0.3,0.2-0.6,0.4-0.7,0.8
	c-0.2,0.3-0.2,0.6-0.2,0.9c0,0.3,0,0.5,0.1,0.7l0,0l8.6,25.9v0c0.2,0.5,0.3,0.9,0.6,1.3c0.1,0.2,0.3,0.4,0.5,0.6
	c0.2,0.2,0.4,0.4,0.7,0.5c0.1,0.1,0.3,0.1,0.4,0.1l-0.9,2.5l0,0c-0.2,0.7-0.5,1.2-0.7,1.5c-0.2,0.4-0.5,0.6-0.6,0.7
	c-0.2,0.1-0.4,0.2-0.6,0.3c-0.3,0.1-0.8,0.1-1.2,0.1c-0.4,0-0.7,0-1-0.1c-0.3,0-0.8-0.1-1.5-0.3l0,0c-0.2-0.1-0.5-0.1-0.7-0.1
	c-0.2,0-0.4,0-0.6,0.1c-0.3,0.1-0.5,0.2-0.7,0.3c-0.3,0.2-0.4,0.4-0.5,0.6c-0.1,0.2-0.2,0.4-0.2,0.6l0,0l-0.5,2l0,0
	c-0.1,0.2-0.1,0.4-0.1,0.6c0,0.3,0.1,0.6,0.2,0.8c0.2,0.4,0.5,0.7,0.8,0.9c0.3,0.2,0.6,0.3,0.8,0.4l0,0c0,0,0,0,0,0c0,0,0,0,0,0l0,0
	c1,0.3,1.9,0.5,2.8,0.6c0.8,0.1,1.4,0.1,2,0.1c1.1,0,2.1-0.1,3.1-0.4c1-0.3,1.8-0.7,2.6-1.3l0,0c0.8-0.6,1.5-1.5,2-2.4
	c0.6-1,1.1-2.1,1.5-3.4l11.1-32.4l0,0c0.1-0.2,0.1-0.4,0.1-0.7c0-0.2,0-0.5-0.2-0.8C264.7,66.7,264.6,66.5,264.4,66.3z"/>
<path d="M302.5,68.2L302.5,68.2L302.5,68.2L302.5,68.2z"/>
<path d="M295.5,68.1C295.5,68.1,295.5,68.1,295.5,68.1C295.5,68.1,295.5,68.1,295.5,68.1L295.5,68.1z"/>
<path d="M318.8,66.8c-0.1-0.2-0.2-0.4-0.4-0.6c-0.3-0.3-0.6-0.4-0.8-0.5c-0.3-0.1-0.5-0.1-0.7-0.1h-3c-0.2,0-0.4,0-0.7,0.1
	c-0.3,0.1-0.6,0.2-0.9,0.5l0,0l0,0c-0.3,0.4-0.5,0.6-0.6,0.9l-0.1,0.1l-3.5,16.8l-0.3,1.5l-0.5-1.6L303.3,70l0,0
	c-0.2-0.7-0.5-1.3-0.8-1.8l0,0c-0.3-0.5-0.8-0.8-1.3-1c-0.5-0.2-1-0.2-1.5-0.2h-1.4c-0.5,0-1,0.1-1.5,0.2c-0.5,0.2-1,0.5-1.3,0.9
	c-0.4,0.5-0.8,1.2-1,1.8l0,0l-4.4,14.7l0,0l-0.2,0.7l-0.2-1l-3.5-17l-0.1-0.1c-0.1-0.3-0.2-0.6-0.6-0.9l0,0l0,0
	c-0.3-0.3-0.7-0.4-0.9-0.5c-0.3-0.1-0.5-0.1-0.7-0.1h-3c-0.2,0-0.4,0-0.6,0.1c-0.2,0-0.3,0.1-0.5,0.2c-0.3,0.2-0.6,0.4-0.7,0.8
	c-0.2,0.3-0.2,0.6-0.2,0.9c0,0.2,0,0.4,0.1,0.6l0,0l5.9,25.9l0,0c0.1,0.5,0.2,1,0.4,1.4c0.2,0.5,0.5,0.9,1,1.3
	c0.3,0.3,0.7,0.5,1.1,0.6c0.4,0.1,0.8,0.2,1.2,0.2h1.7c0.5,0,1-0.1,1.5-0.2c0.5-0.2,1-0.5,1.3-0.9l0,0c0.5-0.6,0.8-1.3,1-2l0,0
	l4-12.6L299,79l0.8,2.7l3.9,12.7h0c0.1,0.4,0.3,0.8,0.5,1.2c0.2,0.4,0.4,0.8,0.8,1.1c0.4,0.3,0.8,0.5,1.3,0.7
	c0.4,0.1,0.9,0.2,1.3,0.2h1.6c0.8,0,1.6-0.2,2.3-0.7c0.5-0.3,0.9-0.8,1.1-1.3c0.2-0.5,0.4-1,0.5-1.5l0,0l5.9-25.9l0,0
	c0-0.2,0.1-0.4,0.1-0.6C319,67.4,318.9,67.1,318.8,66.8z"/>
<path d="M304.9,96.7L304.9,96.7L304.9,96.7L304.9,96.7z"/>
<path d="M286.3,96.8C286.3,96.8,286.3,96.8,286.3,96.8L286.3,96.8L286.3,96.8z"/>
<path d="M359.5,73.5L359.5,73.5L359.5,73.5L359.5,73.5z"/>
<path d="M336.9,69.6L336.9,69.6L336.9,69.6L336.9,69.6z"/>
<path d="M359.5,73.5c-0.5-1.7-1.3-3.2-2.5-4.4l0,0c-1.1-1.3-2.6-2.3-4.2-2.9v0c-1.7-0.7-3.7-1-5.9-1c-2,0-3.9,0.4-5.6,1.1l0,0
	c-1.7,0.7-3.2,1.8-4.5,3.3c-1.3,1.4-2.2,3.2-2.9,5.2c-0.7,2-1,4.3-1,6.9c0,2.7,0.3,5,0.9,7.1c0.6,2,1.6,3.8,2.9,5.2
	c1.3,1.3,2.9,2.3,4.6,3c1.8,0.7,3.7,1,5.9,1c1.5,0,3-0.1,4.5-0.4l0,0c1.6-0.3,3.1-0.9,4.5-1.7c0.3-0.1,0.6-0.3,0.8-0.7
	c0.3-0.4,0.4-0.9,0.4-1.3c0-0.5-0.1-0.8-0.3-1.1l0,0l-1-1.9c-0.1-0.3-0.4-0.6-0.7-0.9c-0.4-0.3-0.8-0.4-1.2-0.4
	c-0.5,0-0.8,0.1-1.2,0.3l0,0l0,0c-0.6,0.3-1.5,0.7-2.5,0.9c-1,0.3-2,0.4-3.1,0.4c-1.1,0-2.1-0.2-3-0.5c-0.9-0.3-1.6-0.7-2.2-1.3
	c-0.6-0.6-1.1-1.4-1.5-2.5l0,0c-0.3-0.7-0.4-1.6-0.5-2.5H355c1.3,0,2.5-0.3,3.5-1c0.7-0.5,1.1-1.2,1.4-1.9c0.3-0.7,0.4-1.5,0.4-2.4
	C360.3,77,360,75.2,359.5,73.5L359.5,73.5z M342.3,73.9L342.3,73.9c0.5-0.6,1.2-1.1,2-1.5l0,0c0.7-0.4,1.6-0.6,2.7-0.6
	c1.4,0,2.4,0.2,3.2,0.6c0.8,0.4,1.4,0.9,1.8,1.5c0.5,0.7,0.8,1.4,1,2.3l0,0c0.1,0.5,0.2,1,0.2,1.5h-12.6c0.1-0.5,0.2-1,0.4-1.4
	l0.1-0.4l-0.1,0.4C341.3,75.3,341.7,74.5,342.3,73.9z"/>
<path d="M356.3,90.7L356.3,90.7L356.3,90.7L356.3,90.7z"/>
<path d="M334,74.8L334,74.8L334,74.8L334,74.8z"/>
<path d="M400.9,56.2c-0.1-0.3-0.3-0.7-0.6-1l0,0c-0.3-0.3-0.6-0.4-0.9-0.4c-0.3-0.1-0.5-0.1-0.7-0.1h-2.5c-0.2,0-0.5,0-0.7,0.1
	c-0.3,0.1-0.6,0.2-0.9,0.4l0,0c-0.2,0.2-0.3,0.3-0.4,0.5c-0.1,0.3-0.2,0.5-0.3,0.7c0,0.2,0,0.4,0,0.6v8.6c-0.6-0.1-1.3-0.2-1.9-0.3
	l0,0l0,0c-1.2-0.1-2.4-0.2-3.4-0.2c-2.4,0-4.6,0.5-6.5,1.4h0c-1.8,0.9-3.4,2.2-4.6,3.8c-1.2,1.6-2.1,3.4-2.6,5.4l0,0
	c-0.5,2-0.8,4-0.8,6.2c0,2.3,0.2,4.5,0.7,6.4c0.5,1.9,1.3,3.7,2.5,5.1c1.2,1.5,2.7,2.6,4.4,3.3c1.8,0.8,3.9,1.1,6.2,1.1
	c1.7,0,3.5-0.1,5.5-0.4c2.1-0.3,4.1-0.8,6-1.6v0c0,0,0,0,0,0c0,0,0,0,0,0v0c0.4-0.2,0.9-0.5,1.1-1c0.3-0.5,0.4-1,0.4-1.4V57
	C401,56.8,401,56.5,400.9,56.2z M391.8,90.9c-0.6,0.1-1.2,0.2-1.7,0.2c-0.6,0-1,0.1-1.4,0.1c-1.2,0-2.2-0.2-3.1-0.5h0
	c-0.8-0.3-1.5-0.7-2.1-1.4l0,0l0,0c-0.6-0.6-1.1-1.5-1.5-2.8c-0.4-1.2-0.6-2.8-0.6-4.7c0-1.9,0.2-3.5,0.6-4.7l0,0
	c0.4-1.3,0.9-2.3,1.6-3.1c0.7-0.8,1.4-1.3,2.2-1.7c0.9-0.4,1.9-0.6,3-0.6c0.7,0,1.6,0.1,2.6,0.2c0.6,0.1,1.4,0.2,2.3,0.5v18
	c-0.1,0-0.2,0.1-0.3,0.1h0C392.9,90.7,392.3,90.8,391.8,90.9L391.8,90.9z"/>
<path d="M377.5,70.4L377.5,70.4L377.5,70.4L377.5,70.4z"/>
<path d="M394.5,55.2L394.5,55.2L394.5,55.2L394.5,55.2z"/>
<path d="M377.2,93.4L377.2,93.4L377.2,93.4L377.2,93.4z"/>
<path d="M374.8,88.3L374.8,88.3L374.8,88.3L374.8,88.3z"/>
</svg>
